<?xml version="1.0" encoding="UTF-8" standalone="no"?>
<!-- Created with Inkscape (http://www.inkscape.org/) -->

<svg
   version="1.1"
   id="svg2"
   width="326.89334"
   height="67.839996"
   viewBox="0 0 326.89334 67.839996"
   sodipodi:docname="bajaj-motorcycle-seeklogo.eps"
   xmlns:inkscape="http://www.inkscape.org/namespaces/inkscape"
   xmlns:sodipodi="http://sodipodi.sourceforge.net/DTD/sodipodi-0.dtd"
   xmlns="http://www.w3.org/2000/svg"
   xmlns:svg="http://www.w3.org/2000/svg">
  <defs
     id="defs6" />
  <sodipodi:namedview
     id="namedview4"
     pagecolor="#ffffff"
     bordercolor="#000000"
     borderopacity="0.25"
     inkscape:showpageshadow="2"
     inkscape:pageopacity="0.0"
     inkscape:pagecheckerboard="0"
     inkscape:deskcolor="#d1d1d1" />
  <g
     id="g8"
     inkscape:groupmode="layer"
     inkscape:label="ink_ext_XXXXXX"
     transform="matrix(1.3333333,0,0,-1.3333333,0,67.84)">
    <g
       id="g10"
       transform="scale(0.1)">
      <path
         d="m 229.363,503.715 c 11.594,5.949 25.793,7.16 37.567,0.851 82.828,-38.222 166.136,-75.429 248.601,-114.316 18.324,-6.074 21.543,-34.473 3.578,-42.852 -66.257,-32.636 -134.402,-61.464 -201.086,-93.203 64.133,-29.425 128.278,-58.918 192.536,-88.105 10.675,-4.61 22.507,-13.469 20.57,-26.699 C 530.824,124.77 515.836,118.336 504.73,112.875 425.605,76.7148 346.539,40.543 267.477,4.25391 255.277,-1.92969 240.41,-1.13672 228.457,5.11328 176.453,29.4492 124.027,52.8086 72.0859,77.1445 129.363,103.227 186.465,129.684 243.809,155.602 c 5.765,4.492 18.929,5.273 17.296,15.039 -11.894,11.836 -29.429,15.898 -43.996,23.672 -6.855,2.117 -14.32,9.042 -21.543,3.945 C 130.277,168.766 65.4102,138.363 0,109.176 0.359375,144.613 -0.242188,180.055 0.425781,215.484 28.8828,228.102 57.2227,241.031 85.3125,254.508 56.9141,267.496 28.6367,280.602 0.179688,293.453 c -0.1210942,35.449 0,70.879 -0.1210942,106.317 C 66.9297,368.883 134.16,338.785 200.906,307.535 c 19.782,8.738 39.93,16.992 59.106,27.07 4.187,9.708 -6.008,13.829 -12.864,16.797 -58.437,26.641 -116.871,53.282 -175.1207,80.223 52.4257,24.094 104.9107,48 157.3357,72.09"
         style="fill:#284ea4;fill-opacity:1;fill-rule:nonzero;stroke:none"
         id="path12" />
      <path
         d="m 866.383,233.93 c -0.121,-34.032 -0.184,-68.133 0.121,-102.176 12.5,15.84 17.351,40.898 38.105,47.988 33.438,3.106 67.172,-0.605 100.671,1.641 15.77,-0.176 32.03,15.117 27.55,31.492 -2.73,14.805 -19.85,21.672 -33.439,20.996 -44.356,0.246 -88.653,0 -133.008,0.059 z m 0.058,92.597 c -0.242,-29.422 -0.117,-58.855 -0.058,-88.23 12.926,17.598 19.476,46.367 44.539,49.883 33.375,1.582 66.93,-0.91 100.358,0.847 11.23,0.793 23.37,8.254 22.58,20.871 -2.67,10.02 -12.2,16.504 -22.33,16.329 -48.366,0.722 -96.725,-0.059 -145.089,0.3 m -83.613,56.067 c 74.512,-0.117 148.969,0.254 223.422,-0.117 33.19,-1.758 69.78,-2.063 97.57,-23 20.81,-14.676 25.79,-44.356 16.33,-66.922 -8.74,-18.879 -28.1,-29.063 -46.55,-36.289 18.93,-7.52 38.96,-18.321 47.15,-38.164 8.74,-24.395 3.52,-55.645 -19.05,-70.821 -27.67,-19.355 -63.11,-19.531 -95.51,-21.054 -74.514,0.3 -149.034,-0.664 -223.542,0.546 0.606,85.254 0.118,170.567 0.18,255.821"
         style="fill:#284ea4;fill-opacity:1;fill-rule:nonzero;stroke:none"
         id="path14" />
      <path
         d="m 1267.66,382.594 c 35.44,-0.293 70.88,0.672 106.3,-0.547 50.07,-85.801 102.45,-170.254 153.23,-255.645 -32.58,-0.293 -65.11,-0.058 -97.7,-0.175 -8.31,14.375 -16.56,28.886 -24.63,43.445 l -3.45,2.18 c -46.67,-0.176 -93.33,-0.176 -140,0 13.41,18.027 19.12,45.332 42.23,53.593 22.82,2.176 45.75,0.293 68.63,0.957 -17.53,30.293 -33.43,61.543 -52.48,90.899 -36.11,-63.828 -72.27,-127.598 -108.75,-191.192 -32.4,0.36 -64.81,-0.117 -97.21,0.293 50.79,85.684 102.8,170.645 153.83,256.192"
         style="fill:#284ea4;fill-opacity:1;fill-rule:nonzero;stroke:none"
         id="path16" />
      <path
         d="m 1705.21,382.594 c 27.8,0 55.59,0 83.38,0 0.19,-58.555 -0.11,-117.11 0.19,-175.723 0.06,-20.996 -2.85,-44.785 -19.24,-59.766 -20.45,-20.089 -51.08,-20.996 -78.04,-20.937 -42.28,0.723 -84.64,-0.977 -126.93,0.723 -25.19,5.761 -31.74,35.254 -45.16,53.828 51.16,0.547 102.38,-0.547 153.53,0.488 14.56,-0.254 33.37,8.555 32.16,25.606 0.31,58.554 0.06,117.167 0.11,175.781"
         style="fill:#284ea4;fill-opacity:1;fill-rule:nonzero;stroke:none"
         id="path18" />
      <path
         d="m 1931.07,382.242 c 35.38,0.781 70.69,0.235 106.07,0.352 50.85,-85.742 103.04,-170.625 153.82,-256.309 -32.64,0.059 -65.35,-0.293 -97.93,0.242 -8.44,15.168 -17.05,30.168 -25.61,45.207 -47.33,0.059 -94.67,-0.117 -141.99,0.059 12.68,17.781 18.69,42.781 39.37,53.164 23.62,3.086 47.58,0.606 71.37,1.512 -17.11,30.578 -34.59,60.988 -51.76,91.504 -36.83,-63.719 -72.63,-127.977 -109.41,-191.746 -32.58,0.058 -65.11,-0.059 -97.64,0.058 51.22,85.313 102.92,170.391 153.71,255.957"
         style="fill:#284ea4;fill-opacity:1;fill-rule:nonzero;stroke:none"
         id="path20" />
      <path
         d="m 2369.67,382.535 c 27.3,0.117 54.61,0.059 81.91,0 -0.06,-62.734 0,-125.488 0.06,-188.281 0.37,-20.508 -8.18,-42.18 -25.78,-53.77 -23.24,-15.293 -52.31,-14.316 -79,-14.316 -38.48,0.547 -76.96,-0.723 -115.37,0.547 -28.27,2.305 -34.03,35.371 -48.48,54.363 50.67,-0.242 101.4,-0.664 152.13,0.07 15.05,-0.371 34.53,8.243 34.34,25.665 0.61,58.613 0,117.167 0.19,175.722"
         style="fill:#284ea4;fill-opacity:1;fill-rule:nonzero;stroke:none"
         id="path22" />
    </g>
  </g>
</svg>
